<svg width="41" height="40" viewBox="0 0 41 40" fill="none" xmlns="http://www.w3.org/2000/svg">
<path d="M20.4999 23.3333C20.0879 23.3333 19.6851 23.4554 19.3425 23.6844C18.9999 23.9133 18.7329 24.2386 18.5752 24.6193C18.4175 25 18.3762 25.4189 18.4566 25.823C18.537 26.2272 18.7354 26.5984 19.0268 26.8897C19.3181 27.1811 19.6894 27.3795 20.0935 27.4599C20.4976 27.5403 20.9165 27.499 21.2972 27.3413C21.6779 27.1837 22.0032 26.9166 22.2322 26.574C22.4611 26.2314 22.5833 25.8286 22.5833 25.4166C22.5833 24.8641 22.3638 24.3341 21.9731 23.9434C21.5824 23.5527 21.0525 23.3333 20.4999 23.3333ZM20.4999 20.8333C20.942 20.8333 21.3659 20.6577 21.6784 20.3451C21.991 20.0325 22.1666 19.6086 22.1666 19.1666V14.1666C22.1666 13.7246 21.991 13.3006 21.6784 12.9881C21.3659 12.6755 20.942 12.4999 20.4999 12.4999C20.0579 12.4999 19.634 12.6755 19.3214 12.9881C19.0089 13.3006 18.8333 13.7246 18.8333 14.1666V19.1666C18.8333 19.6086 19.0089 20.0325 19.3214 20.3451C19.634 20.6577 20.0579 20.8333 20.4999 20.8333ZM20.4999 3.33325C17.2036 3.33325 13.9812 4.31073 11.2404 6.14209C8.4996 7.97345 6.36339 10.5764 5.10193 13.6219C3.84047 16.6673 3.51042 20.0184 4.1535 23.2514C4.79659 26.4844 6.38394 29.4542 8.71481 31.785C11.0457 34.1159 14.0154 35.7033 17.2484 36.3463C20.4814 36.9894 23.8325 36.6594 26.878 35.3979C29.9234 34.1365 32.5264 32.0002 34.3577 29.2594C36.1891 26.5186 37.1666 23.2963 37.1666 19.9999C37.1617 15.5812 35.4042 11.3448 32.2796 8.22023C29.1551 5.09569 24.9187 3.33817 20.4999 3.33325ZM20.4999 33.3333C17.8628 33.3333 15.285 32.5513 13.0923 31.0862C10.8997 29.6211 9.1907 27.5387 8.18153 25.1024C7.17236 22.666 6.90832 19.9851 7.42279 17.3987C7.93726 14.8123 9.20714 12.4365 11.0718 10.5718C12.9365 8.70713 15.3123 7.43725 17.8987 6.92278C20.4851 6.40831 23.166 6.67236 25.6024 7.68153C28.0387 8.69069 30.1211 10.3997 31.5862 12.5923C33.0513 14.785 33.8333 17.3628 33.8333 19.9999C33.8292 23.5349 32.4232 26.9239 29.9235 29.4235C27.4239 31.9232 24.0349 33.3292 20.4999 33.3333Z" fill="black"/>
</svg>
