<svg width="248" height="64" viewBox="0 0 248 64" fill="none" xmlns="http://www.w3.org/2000/svg">
<path d="M128.718 7.03199C130.67 7.03199 132.253 5.45782 132.253 3.51599C132.253 1.57416 130.67 0 128.718 0C126.766 0 125.184 1.57416 125.184 3.51599C125.184 5.45782 126.766 7.03199 128.718 7.03199Z" fill="#C60026"/>
<path fill-rule="evenodd" clip-rule="evenodd" d="M246.541 63.2531C245.682 63.7512 244.703 64.0084 243.709 63.9975C242.719 64.0135 241.745 63.7558 240.893 63.2531C240.416 62.9699 240.024 62.5646 239.758 62.0795C239.677 61.9242 239.638 61.7509 239.644 61.5761C239.65 61.4014 239.701 61.2311 239.792 61.0816C239.883 60.9321 240.011 60.8084 240.165 60.7224C240.318 60.6365 240.49 60.5911 240.666 60.5907C240.857 60.5905 241.044 60.6448 241.205 60.7473C241.366 60.8498 241.494 60.9961 241.574 61.1688C241.643 61.3051 241.739 61.4263 241.856 61.5252C241.973 61.624 242.109 61.6986 242.255 61.7445C242.471 61.8229 242.694 61.8818 242.921 61.9207C243.19 61.9658 243.462 61.9873 243.734 61.9852C245.248 61.9852 246.004 61.5874 246.004 60.7917C246.004 60.2706 245.505 59.9042 244.508 59.6925C243.555 59.5072 242.823 59.3616 242.312 59.2558C242.002 59.2013 241.695 59.1259 241.395 59.03C240.202 58.5651 239.606 57.681 239.606 56.3775C239.606 55.3585 240.068 54.5504 240.993 53.9532C241.815 53.4404 242.766 53.1685 243.737 53.1685C244.707 53.1685 245.658 53.4404 246.481 53.9532C246.936 54.2358 247.308 54.633 247.558 55.1046C247.678 55.3487 247.695 55.6302 247.607 55.887C247.518 56.1439 247.33 56.3551 247.084 56.4742C246.839 56.5934 246.556 56.6106 246.298 56.5222C246.04 56.4338 245.827 56.2469 245.707 56.0028C245.587 55.7595 245.382 55.5675 245.131 55.4619C244.927 55.3746 244.714 55.3089 244.495 55.2658C244.241 55.2208 243.983 55.1992 243.724 55.2013C243.25 55.1851 242.777 55.2697 242.337 55.4495C241.861 55.6604 241.624 55.9631 241.624 56.3527C241.624 56.8886 242.123 57.2649 243.121 57.4816C245.116 57.8538 246.161 58.0722 246.254 58.1367H246.236C247.4 58.6181 247.982 59.5064 247.982 60.8016C247.992 61.8256 247.512 62.6427 246.541 63.2531Z" fill="#26282C"/>
<path d="M238.521 57.231C238.3 56.3781 237.874 55.5916 237.279 54.9397C236.683 54.2877 235.937 53.7901 235.105 53.4899C234.272 53.1897 233.379 53.096 232.502 53.217C231.625 53.3379 230.791 53.6699 230.072 54.184V51.0204C230.072 50.7326 229.957 50.4565 229.753 50.2528C229.548 50.049 229.271 49.9342 228.982 49.9336H228.895C228.605 49.9349 228.328 50.0498 228.123 50.2533C227.919 50.4569 227.803 50.7325 227.802 51.0204V58.4642C227.789 59.2354 227.942 60.0004 228.25 60.7081C228.558 61.4157 229.015 62.0498 229.589 62.5678C230.164 63.0858 230.843 63.4758 231.581 63.7118C232.319 63.9477 233.099 64.0242 233.869 63.936C234.64 63.8478 235.382 63.597 236.047 63.2004C236.712 62.8037 237.284 62.2705 237.725 61.6362C238.166 61.0019 238.466 60.2812 238.605 59.5224C238.743 58.7635 238.717 57.984 238.528 57.236L238.521 57.231ZM233.247 61.742C232.619 61.7425 232.004 61.5575 231.481 61.2103C230.958 60.8632 230.55 60.3695 230.309 59.7917C230.069 59.214 230.005 58.5782 230.128 57.9648C230.25 57.3513 230.553 56.7878 230.998 56.3456C231.442 55.9033 232.009 55.6022 232.626 55.4803C233.242 55.3584 233.881 55.4212 234.462 55.6608C235.043 55.9004 235.539 56.3059 235.888 56.8262C236.237 57.3464 236.423 57.9579 236.423 58.5834C236.423 58.9982 236.341 59.4089 236.181 59.7921C236.022 60.1754 235.788 60.5236 235.493 60.8169C235.198 61.1102 234.848 61.3429 234.463 61.5016C234.077 61.6603 233.664 61.742 233.247 61.742ZM226.722 57.231C226.432 56.1105 225.789 55.1118 224.887 54.3813C223.985 53.6507 222.871 53.2267 221.709 53.1713C220.547 53.1159 219.398 53.432 218.43 54.0734C217.462 54.7148 216.725 55.6478 216.329 56.7356C215.933 57.8234 215.897 59.0089 216.227 60.1184C216.557 61.2279 217.235 62.2032 218.163 62.9013C219.09 63.5995 220.218 63.9838 221.382 63.998C222.545 64.0122 223.682 63.6555 224.626 62.9802C224.642 63.2562 224.764 63.5157 224.966 63.7054C225.169 63.895 225.436 64.0005 225.714 64H225.801C226.091 64 226.368 63.8859 226.573 63.6826C226.778 63.4793 226.893 63.2035 226.894 62.9157V58.5188C226.887 58.0844 226.829 57.6523 226.722 57.231ZM221.449 61.742C220.82 61.7425 220.205 61.5575 219.682 61.2103C219.159 60.8632 218.751 60.3695 218.51 59.7917C218.27 59.214 218.206 58.5782 218.329 57.9648C218.452 57.3513 218.754 56.7878 219.199 56.3456C219.643 55.9033 220.21 55.6022 220.827 55.4803C221.443 55.3584 222.083 55.4212 222.663 55.6608C223.244 55.9004 223.74 56.3059 224.089 56.8262C224.438 57.3464 224.624 57.9579 224.624 58.5834C224.624 59.4211 224.289 60.2245 223.694 60.8169C223.098 61.4092 222.291 61.742 221.449 61.742Z" fill="#26282C"/>
<path fill-rule="evenodd" clip-rule="evenodd" d="M213.915 49.9336H214.003C214.147 49.9352 214.291 49.9652 214.424 50.0218C214.557 50.0784 214.677 50.1605 214.779 50.2635C214.88 50.3665 214.96 50.4884 215.014 50.622C215.068 50.7557 215.094 50.8987 215.093 51.0427V62.8909C215.094 63.0349 215.068 63.1778 215.014 63.3115C214.96 63.4452 214.88 63.567 214.779 63.67C214.677 63.773 214.557 63.8552 214.424 63.9118C214.291 63.9684 214.147 63.9984 214.003 64H213.915C213.771 63.9984 213.628 63.9684 213.494 63.9118C213.361 63.8552 213.241 63.773 213.139 63.67C213.038 63.567 212.958 63.4452 212.904 63.3115C212.851 63.1778 212.824 63.0349 212.825 62.8909V51.0427C212.824 50.8987 212.851 50.7557 212.904 50.622C212.958 50.4884 213.038 50.3665 213.139 50.2635C213.241 50.1605 213.361 50.0784 213.494 50.0218C213.628 49.9652 213.771 49.9352 213.915 49.9336Z" fill="#26282C"/>
<path d="M248 28.7979C247.971 24.8601 246.608 21.0471 244.13 17.9758C241.653 14.9046 238.206 12.7547 234.347 11.8741C230.488 10.9935 226.444 11.4337 222.868 13.1234C219.292 14.8132 216.394 17.6536 214.643 21.1852C212.891 24.7168 212.389 28.7328 213.217 32.5836C214.045 36.4344 216.155 39.8946 219.206 42.4043C222.257 44.914 226.07 46.3265 230.027 46.4131C233.985 46.4998 237.857 45.2555 241.015 42.8817V42.9437C241.015 43.8651 241.383 44.7486 242.038 45.4001C242.693 46.0516 243.582 46.4176 244.508 46.4176C245.434 46.4176 246.322 46.0516 246.977 45.4001C247.632 44.7486 248 43.8651 248 42.9437V28.8004V28.7979ZM230.414 39.4674C228.322 39.4673 226.278 38.8518 224.537 37.6985C222.796 36.5451 221.438 34.9054 220.632 32.9857C219.826 31.066 219.609 28.952 220.008 26.9098C220.407 24.8677 221.404 22.9885 222.874 21.5089C224.345 20.0293 226.222 19.0152 228.27 18.5944C230.318 18.1736 232.446 18.3649 234.385 19.144C236.324 19.9232 237.989 21.2555 239.168 22.9733C240.348 24.6911 240.991 26.7176 241.015 28.7979V28.922C241.015 31.7186 239.898 34.4005 237.91 36.378C235.922 38.3555 233.225 39.4668 230.414 39.4674Z" fill="#26282C"/>
<path fill-rule="evenodd" clip-rule="evenodd" d="M209.335 28.783V42.9264C209.335 43.8477 208.968 44.7313 208.313 45.3827C207.658 46.0342 206.769 46.4002 205.843 46.4002C204.917 46.4002 204.029 46.0342 203.374 45.3827C202.719 44.7313 202.351 43.8477 202.351 42.9264V28.9319C202.351 23.1331 197.656 18.3789 191.874 18.3789C186.092 18.3789 181.397 23.1331 181.397 28.9319C181.382 35.1781 181.382 39.8471 181.397 42.9388C181.397 43.8601 181.029 44.7437 180.374 45.3951C179.719 46.0466 178.831 46.4126 177.905 46.4126C176.979 46.4126 176.09 46.0466 175.435 45.3951C174.781 44.7437 174.413 43.8601 174.413 42.9388V28.783C174.495 19.1729 182.29 11.4388 191.874 11.4388C201.458 11.4388 209.253 19.1655 209.335 28.783Z" fill="#26282C"/>
<path d="M170.92 28.7979C170.891 24.8601 169.528 21.0471 167.05 17.9758C164.572 14.9046 161.125 12.7547 157.267 11.8741C153.408 10.9935 149.364 11.4337 145.788 13.1234C142.212 14.8132 139.314 17.6536 137.563 21.1852C135.811 24.7168 135.309 28.7328 136.137 32.5836C136.965 36.4344 139.075 39.8946 142.126 42.4043C145.177 44.914 148.989 46.3265 152.947 46.4131C156.905 46.4998 160.777 45.2555 163.935 42.8817V42.9437C163.935 43.8651 164.303 44.7486 164.958 45.4001C165.613 46.0516 166.501 46.4176 167.428 46.4176C168.354 46.4176 169.242 46.0516 169.897 45.4001C170.552 44.7486 170.92 43.8651 170.92 42.9437V28.8004V28.7979ZM153.331 39.4674C151.24 39.4668 149.195 38.8509 147.455 37.6973C145.715 36.5436 144.357 34.9037 143.551 32.984C142.745 31.0642 142.529 28.9503 142.928 26.9083C143.327 24.8663 144.325 22.9874 145.795 21.508C147.266 20.0286 149.143 19.0148 151.191 18.5942C153.239 18.1736 155.367 18.365 157.306 19.1443C159.245 19.9235 160.909 21.2558 162.089 22.9736C163.268 24.6913 163.911 26.7177 163.935 28.7979V28.922C163.935 31.7194 162.818 34.4024 160.83 36.3805C158.841 38.3586 156.144 39.4699 153.331 39.4699V39.4674Z" fill="#26282C"/>
<path fill-rule="evenodd" clip-rule="evenodd" d="M128.763 11.4313C129.689 11.4313 130.578 11.7973 131.232 12.4488C131.887 13.1002 132.255 13.9838 132.255 14.9051V42.9437C132.255 43.865 131.887 44.7486 131.232 45.4001C130.578 46.0516 129.689 46.4175 128.763 46.4175C127.837 46.4175 126.949 46.0516 126.294 45.4001C125.639 44.7486 125.271 43.865 125.271 42.9437V14.9051C125.271 13.9838 125.639 13.1002 126.294 12.4488C126.949 11.7973 127.837 11.4313 128.763 11.4313ZM100.825 42.9264V28.783C100.907 19.1705 108.702 11.4338 118.286 11.4338C119.212 11.4338 120.101 11.7998 120.756 12.4512C121.411 13.1027 121.778 13.9863 121.778 14.9076C121.778 15.8289 121.411 16.7125 120.756 17.364C120.101 18.0154 119.212 18.3814 118.286 18.3814C112.504 18.3814 107.809 23.1356 107.809 28.9343C107.794 35.1822 107.794 39.8529 107.809 42.9462C107.809 43.8675 107.441 44.7511 106.786 45.4026C106.131 46.054 105.243 46.42 104.317 46.42C103.391 46.42 102.503 46.054 101.848 45.4026C101.193 44.7511 100.825 43.8675 100.825 42.9462" fill="#26282C"/>
<path d="M97.3326 28.7979C97.304 24.8601 95.9405 21.0471 93.4628 17.9758C90.9851 14.9046 87.5381 12.7547 83.6795 11.8741C79.8209 10.9935 75.7765 11.4337 72.2006 13.1234C68.6248 14.8132 65.7267 17.6536 63.9753 21.1852C62.2239 24.7168 61.7216 28.7328 62.5498 32.5836C63.3779 36.4344 65.488 39.8946 68.5387 42.4043C71.5893 44.914 75.402 46.3265 79.3599 46.4131C83.3178 46.4998 87.1893 45.2555 90.348 42.8817V42.9437C90.348 43.8651 90.7159 44.7486 91.3708 45.4001C92.0258 46.0516 92.9141 46.4176 93.8403 46.4176C94.7665 46.4176 95.6548 46.0516 96.3097 45.4001C96.9646 44.7486 97.3326 43.8651 97.3326 42.9437V28.8004V28.7979ZM79.7439 39.4674C77.6525 39.4668 75.6081 38.8509 73.8678 37.6973C72.1275 36.5436 70.7691 34.9037 69.9636 32.984C69.158 31.0642 68.9413 28.9503 69.3406 26.9083C69.7399 24.8663 70.7375 22.9874 72.2078 21.508C73.6781 20.0286 75.5555 19.0148 77.6036 18.5942C79.6518 18.1736 81.7793 18.365 83.7183 19.1443C85.6574 19.9235 87.3215 21.2558 88.5012 22.9736C89.6808 24.6913 90.3234 26.7177 90.348 28.7979V28.922C90.348 31.7194 89.2308 34.4024 87.2421 36.3805C85.2535 38.3586 82.5563 39.4699 79.7439 39.4699V39.4674Z" fill="#26282C"/>
<path d="M0 50.0477L23.7127 7.03198H38.6447L21.7495 38.2119C19.6635 42.0659 16.4985 45.2353 12.6382 47.3361C8.77778 49.4368 4.38771 50.3788 0 50.0477Z" fill="#26282C"/>
<path d="M62.3626 50.0477L38.6449 7.03198H23.7129L40.6081 38.2119C42.6944 42.0667 45.8602 45.2367 49.7215 47.3375C53.5829 49.4383 57.974 50.3797 62.3626 50.0477Z" fill="#C60026"/>
</svg>
